<svg width="134" height="33" viewBox="0 0 134 33" fill="none" xmlns="http://www.w3.org/2000/svg">
<path fill-rule="evenodd" clip-rule="evenodd" d="M55.1486 26.6784C50.0105 30.355 42.566 32.3188 36.1492 32.3188C27.1518 32.3188 19.0679 29.099 12.9251 23.7326C12.4455 23.3215 12.8794 22.7278 13.4503 23.0703C20.0727 26.7926 28.248 29.0533 36.6744 29.0533C42.3605 29.0533 48.6404 27.9115 54.395 25.5366C55.2856 25.1484 56.0164 26.0618 55.1486 26.6784Z" fill="#222E3E"/>
<path fill-rule="evenodd" clip-rule="evenodd" d="M56.1534 24.1664C55.5597 23.3899 52.1571 23.801 50.65 23.9837C50.1933 24.0293 50.1248 23.6411 50.5358 23.3443C53.2304 21.4261 57.6606 21.9741 58.163 22.6135C58.6882 23.2758 58.026 27.7744 55.4912 29.921C55.103 30.2407 54.7376 30.0809 54.8975 29.647C55.4912 28.1855 56.77 24.9428 56.1534 24.1664Z" fill="#222E3E"/>
<path fill-rule="evenodd" clip-rule="evenodd" d="M50.7641 7.56471V5.48665C50.7641 5.16695 50.9925 4.96143 51.2665 4.96143H60.2182C60.515 4.96143 60.7434 5.18979 60.7434 5.48665V7.26785C60.7434 7.56472 60.4922 7.95293 60.0583 8.56949L55.4226 15.4659C57.1353 15.4203 58.9622 15.6943 60.5379 16.6077C60.8804 16.8132 60.9946 17.1101 61.0174 17.4298V19.6449C61.0174 19.9418 60.6977 20.3071 60.3552 20.1244C57.592 18.6173 53.9383 18.4574 50.8783 20.1473C50.5586 20.33 50.2389 19.9646 50.2389 19.6677V17.544C50.2389 17.2015 50.2389 16.6306 50.5814 16.1053L55.9707 8.06711H51.2893C51.0153 8.08994 50.7869 7.88442 50.7641 7.56471Z" fill="#222E3E"/>
<path fill-rule="evenodd" clip-rule="evenodd" d="M18.4057 21.1063H15.7567C15.5055 21.0834 15.3 20.8779 15.2772 20.6267V5.80622C15.2772 5.50935 15.5055 5.28099 15.8024 5.28099H18.2915C18.5427 5.30383 18.7482 5.50936 18.7711 5.78339V7.72444H18.8167C19.4561 5.85189 20.6893 4.98413 22.3334 4.98413C24.0005 4.98413 25.0509 5.85189 25.7817 7.72444C26.4211 5.85189 27.9054 4.98413 29.4582 4.98413C30.5772 4.98413 31.7875 5.48652 32.5411 6.60548C33.386 7.86145 33.2033 9.66548 33.2033 11.2412V20.581C33.2033 20.8779 32.975 21.1063 32.7009 21.1063H30.0291C29.7551 21.0834 29.5496 20.8551 29.5496 20.581V12.7255C29.5496 12.1089 29.5953 10.5332 29.4811 9.93952C29.2756 8.93474 28.6818 8.6607 27.9054 8.6607C27.266 8.6607 26.5809 9.11742 26.3069 9.87101C26.0329 10.6246 26.0557 11.8577 26.0557 12.7027V20.5582C26.0557 20.8551 25.8273 21.0834 25.5533 21.0834H22.8815C22.6075 21.0606 22.402 20.8322 22.402 20.5582V12.7027C22.402 11.0585 22.6531 8.61503 20.7578 8.61503C18.8396 8.61503 18.9081 10.99 18.9081 12.7027V20.5582C18.9309 20.8779 18.7025 21.1063 18.4057 21.1063Z" fill="#222E3E"/>
<path fill-rule="evenodd" clip-rule="evenodd" d="M69.0786 7.93009C67.0462 7.93009 66.9092 10.7846 66.9092 12.5429C66.9092 14.3241 66.8863 18.1149 69.0558 18.1149C71.2023 18.1149 71.2937 15.0549 71.2937 13.1823C71.2937 11.9492 71.248 10.4877 70.8826 9.32308C70.5858 8.3183 69.9464 7.93009 69.0786 7.93009ZM69.0558 4.96143C73.1662 4.96143 75.3813 8.56949 75.3813 13.1595C75.3813 17.5897 72.915 21.1064 69.0558 21.1064C65.0138 21.1064 62.8216 17.4983 62.8216 12.9997C62.8216 8.47815 65.0366 4.96143 69.0558 4.96143Z" fill="#222E3E"/>
<path fill-rule="evenodd" clip-rule="evenodd" d="M81.1586 21.1064H78.5553C78.2813 21.0836 78.0757 20.8552 78.0757 20.5812V5.76068C78.0986 5.48665 78.3041 5.28113 78.5781 5.28113H80.9987C81.2271 5.30396 81.4098 5.46381 81.4555 5.69217V7.95293H81.5011C82.2319 5.92053 83.2595 4.96143 85.0635 4.96143C86.2282 4.96143 87.3928 5.44098 88.1235 6.69695C88.8086 7.88442 88.8086 9.87114 88.8086 11.3098V20.6268C88.7858 20.9009 88.5574 21.0836 88.3062 21.0836H85.6801C85.4289 21.0607 85.2462 20.878 85.2234 20.6268V12.5886C85.2234 10.9673 85.4061 8.59233 83.5792 8.59233C82.9398 8.59233 82.3461 9.04905 82.072 9.7798C81.7066 10.6932 81.661 11.5838 81.661 12.5886V20.5583C81.661 20.878 81.4326 21.1064 81.1586 21.1064Z" fill="#222E3E"/>
<path fill-rule="evenodd" clip-rule="evenodd" d="M47.0419 20.8779C46.8592 21.0378 46.5852 21.0606 46.3796 20.9464C45.4434 20.17 45.2835 19.8046 44.7583 19.0739C43.2055 20.6495 42.1093 21.1291 40.1226 21.1291C37.7477 21.1291 35.898 19.6676 35.898 16.7218C35.898 14.4382 37.1311 12.8625 38.8895 12.1089C40.4195 11.4467 42.5432 11.3097 44.1874 11.127V10.7616C44.1874 10.0994 44.2331 9.30011 43.8449 8.70638C43.5023 8.18115 42.8401 7.97563 42.2692 7.97563C41.1959 7.97563 40.2368 8.52369 40.0084 9.66548C39.9628 9.91668 39.7801 10.1679 39.5289 10.1907L36.8114 9.89384C36.5831 9.84817 36.3319 9.66548 36.4004 9.30011C37.0169 5.96607 40.0084 4.98413 42.7031 4.98413C44.0732 4.98413 45.8544 5.3495 46.9505 6.39995C48.3207 7.67876 48.1837 9.39145 48.1837 11.264V15.6713C48.1837 16.9958 48.7317 17.5667 49.257 18.2974C49.4397 18.5486 49.4853 18.8683 49.257 19.051C48.6404 19.4849 47.6128 20.3755 47.0419 20.8779ZM44.2102 13.9815C44.2102 15.0776 44.2331 15.991 43.685 16.973C43.2283 17.7722 42.5204 18.2518 41.744 18.2518C40.6707 18.2518 40.0313 17.4297 40.0313 16.1965C40.0313 13.7988 42.1778 13.3421 44.2102 13.3421V13.9815Z" fill="#222E3E"/>
<path fill-rule="evenodd" clip-rule="evenodd" d="M11.1439 20.878C10.9612 21.0379 10.6872 21.0607 10.4817 20.9465C9.54539 20.1701 9.38554 19.8047 8.86032 19.074C7.30748 20.6497 6.21136 21.1292 4.22464 21.1292C1.84971 21.1292 0 19.6677 0 16.7219C0 14.4383 1.23314 12.8626 2.9915 12.1091C4.5215 11.4468 6.64524 11.3098 8.28942 11.1271V10.7617C8.28942 10.0995 8.33509 9.30024 7.94688 8.70651C7.60435 8.18128 6.94211 7.97576 6.37121 7.97576C5.29792 7.97576 4.33882 8.52382 4.11046 9.66562C4.06479 9.91681 3.8821 10.168 3.6309 10.1908L0.913435 9.89398C0.685076 9.8483 0.433881 9.66562 0.502389 9.30024C1.11896 5.9662 4.11046 4.96143 6.78225 4.96143C8.15241 4.96143 9.93361 5.3268 11.0297 6.37725C12.3999 7.65606 12.2629 9.36875 12.2629 11.2413V15.6486C12.2629 16.9731 12.8109 17.544 13.3362 18.2747C13.5188 18.5259 13.5645 18.8456 13.3362 19.0283C12.7424 19.485 11.7148 20.3756 11.1439 20.878ZM8.31226 13.9816C8.31226 15.0777 8.33509 15.9912 7.78703 16.9731C7.33032 17.7724 6.6224 18.2519 5.84598 18.2519C4.7727 18.2519 4.13329 17.4298 4.13329 16.1967C4.13329 13.7989 6.27987 13.3422 8.31226 13.3422V13.9816Z" fill="#222E3E"/>
<path fill-rule="evenodd" clip-rule="evenodd" d="M111.256 9.0719C110.48 10.0082 110.115 11.287 110.115 12.9312C110.115 14.5753 110.48 15.877 111.211 16.8361C112.056 17.9094 113.289 18.4574 114.956 18.4574C116.509 18.4574 117.696 17.9322 118.564 16.8589C119.317 15.8998 119.706 14.6439 119.706 13.1139V12.8398C119.706 11.2413 119.249 9.93967 118.427 8.95772C117.559 7.95294 116.44 7.47339 115.07 7.47339C113.38 7.47339 112.101 7.99862 111.256 9.0719ZM122.035 1.03368V19.348C122.035 19.6221 121.784 19.8276 121.487 19.8276H120.368C120.048 19.8276 119.797 19.5992 119.797 19.3252V17.5669C118.724 19.3252 116.988 20.193 114.682 20.193C112.421 20.193 110.663 19.4394 109.407 18.0007C108.242 16.6763 107.671 14.9636 107.671 12.8855C107.671 10.8531 108.242 9.20892 109.407 7.88444C110.663 6.40011 112.352 5.66936 114.568 5.66936C116.783 5.66936 118.473 6.62846 119.66 8.56951V0.94233C119.66 0.668299 119.911 0.439941 120.231 0.439941H121.418C121.761 0.462777 122.035 0.713973 122.035 1.03368Z" fill="#222E3E"/>
<path fill-rule="evenodd" clip-rule="evenodd" d="M103.675 14.1186C103.675 15.2376 103.15 16.2424 102.122 17.1101C101.072 18.0007 99.8841 18.4574 98.5368 18.4574C97.6462 18.4574 96.9383 18.2291 96.3902 17.818C95.8422 17.3613 95.591 16.8361 95.591 16.1738C95.591 14.0729 97.1895 13.0225 100.387 12.954L103.675 12.9083V14.1186ZM104.611 6.58277C103.606 5.48665 102.122 4.96143 100.09 4.96143C99.4731 4.96143 98.925 5.0071 98.3998 5.09844C96.9383 5.28113 95.591 5.94337 94.5862 6.55994C94.4035 6.67412 94.335 6.90248 94.4264 7.08516L94.8374 7.93009C94.9287 8.13561 95.2028 8.22696 95.4083 8.11278C96.3674 7.58755 97.6691 7.13083 98.8108 6.87964C99.1534 6.81113 99.5416 6.7883 99.9526 6.7883C102.442 6.7883 103.675 7.9986 103.675 10.4192V11.1728L100.25 11.2185C98.1029 11.2413 96.4359 11.5382 95.2713 12.3374C93.9468 13.1823 93.3074 14.5297 93.3074 16.1738C93.3074 17.3385 93.7413 18.3204 94.6319 19.074C95.4768 19.8047 96.6186 20.1701 98.0573 20.1701C99.3817 20.1701 100.569 19.8733 101.62 19.2795C102.51 18.7771 103.241 18.1377 103.789 17.3385V19.2338C103.789 19.5307 104.04 19.7819 104.337 19.7819H105.319C105.616 19.7819 105.867 19.5307 105.867 19.2338V10.4877C105.89 8.84352 105.456 7.54188 104.611 6.58277Z" fill="#222E3E"/>
<path fill-rule="evenodd" clip-rule="evenodd" d="M123.839 17.521C123.839 17.2013 124.204 16.9958 124.478 17.1785C125.597 17.8407 126.785 18.1604 128.064 18.1604C130.073 18.1604 131.443 17.4982 131.443 16.1965C131.443 15.6485 131.215 15.1689 130.781 14.8264C130.347 14.461 129.091 14.0271 127.744 13.5476C126.123 12.9082 125.072 12.2688 124.593 11.6294C124.113 10.99 123.862 10.2364 123.862 9.34578C123.862 8.06697 124.41 6.92518 125.506 6.14876C126.602 5.37234 127.949 4.98413 129.548 4.98413C130.69 4.98413 131.763 5.281 132.745 5.64637C132.905 5.71488 133.019 5.85189 133.019 6.03458V7.51891C133.019 7.83861 132.699 8.0213 132.402 7.88429C131.466 7.42757 130.438 7.06219 129.297 7.06219C128.475 7.06219 127.561 7.24488 127.036 7.58742C126.511 7.92996 126.145 8.54653 126.145 9.11742C126.145 9.68832 126.328 10.145 126.716 10.4647C127.082 10.7844 128.269 11.1955 129.548 11.6979C131.169 12.2916 132.288 12.931 132.859 13.5704C133.43 14.2098 133.727 15.0091 133.727 15.9682C133.727 17.2927 133.179 18.3431 132.083 19.0967C130.987 19.8503 129.571 20.2385 127.812 20.2385C126.397 20.2385 125.163 19.9873 124.09 19.5077C123.93 19.4392 123.839 19.3022 123.839 19.1195V17.521Z" fill="#222E3E"/>
</svg>
