<svg width="34" height="34" viewBox="0 0 34 34" fill="none" xmlns="http://www.w3.org/2000/svg">
<path d="M29.1161 27.6978C15.4517 34.2009 6.97137 28.76 1.54286 25.4552C1.20695 25.247 0.636014 25.5039 1.13138 26.0729C2.93989 28.2658 8.86674 33.5512 16.603 33.5512C24.3446 33.5512 28.9502 29.327 29.5263 28.5901C30.0985 27.8595 29.6943 27.4564 29.116 27.6978H29.1161ZM32.9537 25.5785C32.5868 25.1006 30.7224 25.0116 29.5491 25.1557C28.374 25.2957 26.6102 26.0138 26.7635 26.4451C26.8422 26.6066 27.0028 26.5341 27.8101 26.4616C28.6196 26.3808 30.8872 26.0946 31.3597 26.7123C31.8344 27.3343 30.6365 30.2971 30.4177 30.7749C30.2063 31.2528 30.4984 31.376 30.8955 31.0577C31.2871 30.7396 31.9961 29.9157 32.4719 28.7498C32.9444 27.5776 33.2326 25.9423 32.9537 25.5785Z" fill="#F78B27"/>
<path fill-rule="evenodd" clip-rule="evenodd" d="M19.9309 14.4323C19.9309 16.1386 19.974 17.5616 19.1115 19.0769C18.4154 20.309 17.3128 21.0667 16.0808 21.0667C14.399 21.0667 13.4196 19.7854 13.4196 17.8943C13.4196 14.1612 16.7644 13.4836 19.9309 13.4836V14.4323ZM24.3476 25.1078C24.058 25.3664 23.6392 25.385 23.3127 25.2124C21.859 24.0051 21.6002 23.4446 20.7994 22.2926C18.397 24.7443 16.6968 25.4773 13.5798 25.4773C9.89604 25.4773 7.02539 23.2042 7.02539 18.6519C7.02539 15.0976 8.95362 12.6766 11.6947 11.494C14.0726 10.4466 17.3929 10.2619 19.9309 9.97245V9.40567C19.9309 8.36456 20.0109 7.13257 19.4011 6.23325C18.8651 5.42625 17.8425 5.09358 16.9431 5.09358C15.2738 5.09358 13.783 5.94979 13.4196 7.72389C13.3456 8.11824 13.0561 8.50635 12.6619 8.52479L8.41138 8.06902C8.05417 7.98878 7.65995 7.69935 7.75851 7.15101C8.73794 2.00128 13.3887 0.448833 17.5529 0.448833C19.6843 0.448833 22.4686 1.01561 24.1504 2.62961C26.2818 4.61925 26.0785 7.27423 26.0785 10.1633V16.9887C26.0785 19.04 26.9286 19.9394 27.7293 21.0483C28.0127 21.4425 28.0743 21.9169 27.717 22.2125C26.8238 22.9578 25.2345 24.3439 24.3598 25.1201L24.3475 25.1078" fill="black"/>
<path d="M29.1161 27.6978C15.4517 34.2009 6.97137 28.76 1.54286 25.4552C1.20695 25.247 0.636014 25.5039 1.13138 26.0729C2.93989 28.2658 8.86674 33.5512 16.603 33.5512C24.3446 33.5512 28.9502 29.327 29.5263 28.5901C30.0985 27.8595 29.6943 27.4564 29.116 27.6978H29.1161ZM32.9537 25.5785C32.5868 25.1006 30.7224 25.0116 29.5491 25.1557C28.374 25.2957 26.6102 26.0138 26.7635 26.4451C26.8422 26.6066 27.0028 26.5341 27.8101 26.4616C28.6196 26.3808 30.8872 26.0946 31.3597 26.7123C31.8344 27.3343 30.6365 30.2971 30.4177 30.7749C30.2063 31.2528 30.4984 31.376 30.8955 31.0577C31.2871 30.7396 31.9961 29.9157 32.4719 28.7498C32.9444 27.5776 33.2326 25.9423 32.9537 25.5785Z" fill="#F78B27"/>
<path fill-rule="evenodd" clip-rule="evenodd" d="M19.9309 14.4323C19.9309 16.1386 19.974 17.5616 19.1115 19.0769C18.4154 20.309 17.3128 21.0667 16.0808 21.0667C14.399 21.0667 13.4196 19.7854 13.4196 17.8943C13.4196 14.1612 16.7644 13.4836 19.9309 13.4836V14.4323ZM24.3476 25.1078C24.058 25.3664 23.6392 25.385 23.3127 25.2124C21.859 24.0051 21.6002 23.4446 20.7994 22.2926C18.397 24.7443 16.6968 25.4773 13.5798 25.4773C9.89604 25.4773 7.02539 23.2042 7.02539 18.6519C7.02539 15.0976 8.95362 12.6766 11.6947 11.494C14.0726 10.4466 17.3929 10.2619 19.9309 9.97245V9.40567C19.9309 8.36456 20.0109 7.13257 19.4011 6.23325C18.8651 5.42625 17.8425 5.09358 16.9431 5.09358C15.2738 5.09358 13.783 5.94979 13.4196 7.72389C13.3456 8.11824 13.0561 8.50635 12.6619 8.52479L8.41138 8.06902C8.05417 7.98878 7.65995 7.69935 7.75851 7.15101C8.73794 2.00128 13.3887 0.448833 17.5529 0.448833C19.6843 0.448833 22.4686 1.01561 24.1504 2.62961C26.2818 4.61925 26.0785 7.27423 26.0785 10.1633V16.9887C26.0785 19.04 26.9286 19.9394 27.7293 21.0483C28.0127 21.4425 28.0743 21.9169 27.717 22.2125C26.8238 22.9578 25.2345 24.3439 24.3598 25.1201L24.3475 25.1078" fill="black"/>
</svg>
