<svg width="28" height="36" viewBox="0 0 28 36" fill="none" xmlns="http://www.w3.org/2000/svg">
<path d="M24.0435 6.16849C22.4837 6.16849 21.3804 6.85327 20.3913 8.29893L17.462 12.5218V0.5H10.462V12.5218L7.53261 8.29893C6.50543 6.85327 5.40217 6.16849 3.88043 6.16849C1.55978 6.16849 0 7.88045 0 10.0109C0 11.837 0.836956 13.0163 2.66304 14.1576L14 21.462L25.337 14.1576C27.125 12.9783 28 11.7989 28 10.0109C27.962 7.91849 26.4022 6.16849 24.0435 6.16849Z" fill="#0AAD0A"/>
<path d="M13.9619 23.25C20.6956 23.25 26.2119 28.2717 26.2119 35.5H1.71191C1.71191 28.2717 7.22822 23.25 13.9619 23.25Z" fill="#FF7009"/>
</svg>
