<svg width="34" height="36" viewBox="0 0 34 36" fill="none" xmlns="http://www.w3.org/2000/svg">
<path d="M19.4479 0.386883C24.7719 0.386883 29.5514 2.65563 32.9546 6.28564C33.1361 6.48226 33.2268 6.75451 33.2117 7.02676C33.1966 7.29901 33.0604 7.55614 32.8638 7.72251L28.0238 11.776C27.6306 12.1088 27.0558 12.0785 26.6928 11.7155C24.7568 9.82489 22.1704 8.75101 19.4479 8.73589C14.2903 8.73589 10.1007 12.6684 10.1007 18.0226C10.1007 23.3769 14.2752 27.264 19.4479 27.264C22.1553 27.2489 24.7568 26.175 26.6928 24.2844C27.0558 23.9214 27.6306 23.9063 28.0238 24.2239L32.8638 28.2774C33.0756 28.4589 33.1966 28.7009 33.2268 28.9731C33.2571 29.2454 33.1512 29.5176 32.9697 29.7143C29.5666 33.3443 24.7871 35.613 19.4631 35.613C9.13268 35.6433 0.768555 28.2169 0.768555 18.0378C0.768555 7.85864 9.13268 0.386883 19.4479 0.386883Z" fill="#FE5000"/>
</svg>
