<svg width="12" height="12" viewBox="0 0 12 12" fill="none" xmlns="http://www.w3.org/2000/svg">
<path d="M11.765 5.79286C11.765 2.68443 9.24557 0.165039 6.13761 0.165039C3.02964 0.165039 0.510254 2.68443 0.510254 5.79286C0.510254 8.60114 2.56816 10.9292 5.25826 11.3513V7.4193H3.82973V5.79239H5.25826V4.55286C5.25826 3.14216 6.09868 2.36317 7.3837 2.36317C7.99948 2.36317 8.64339 2.47291 8.64339 2.47291V3.85783H7.93429C7.2355 3.85783 7.01742 4.29164 7.01742 4.73671V5.79286H8.5782L8.3287 7.41977H7.01742V11.3517C9.70752 10.9297 11.7654 8.60161 11.7654 5.79286H11.765Z" fill="black"/>
</svg>
