<svg width="12" height="12" viewBox="0 0 12 12" fill="none" xmlns="http://www.w3.org/2000/svg">
<path d="M5.65544 2.86816C5.08389 2.86816 4.52517 3.03765 4.04995 3.35519C3.57472 3.67272 3.20432 4.12405 2.9856 4.6521C2.76688 5.18014 2.70965 5.76119 2.82115 6.32176C2.93266 6.88232 3.20789 7.39724 3.61203 7.80139C4.01618 8.20554 4.5311 8.48077 5.09167 8.59227C5.65224 8.70377 6.23328 8.64655 6.76133 8.42782C7.28937 8.2091 7.7407 7.8387 8.05824 7.36348C8.37577 6.88825 8.54526 6.32953 8.54526 5.75798C8.54527 5.37848 8.47052 5.0027 8.3253 4.65209C8.18008 4.30147 7.96721 3.9829 7.69887 3.71455C7.43052 3.44621 7.11195 3.23335 6.76134 3.08812C6.41072 2.9429 6.03494 2.86816 5.65544 2.86816ZM5.65544 7.63405C5.28439 7.63405 4.92167 7.52402 4.61314 7.31787C4.30462 7.11172 4.06416 6.81871 3.92217 6.4759C3.78017 6.13309 3.74302 5.75587 3.81541 5.39195C3.8878 5.02802 4.06649 4.69374 4.32886 4.43136C4.59124 4.16899 4.92553 3.99031 5.28945 3.91792C5.65338 3.84554 6.0306 3.88269 6.37341 4.02469C6.71622 4.16669 7.00922 4.40716 7.21536 4.71568C7.42151 5.0242 7.53154 5.38693 7.53153 5.75798C7.53156 6.00436 7.48306 6.24833 7.38878 6.47596C7.29451 6.70359 7.15632 6.91042 6.9821 7.08464C6.80789 7.25885 6.60106 7.39704 6.37343 7.49131C6.14579 7.58558 5.90182 7.63408 5.65544 7.63405Z" fill="black"/>
<path d="M11.2491 3.43794C11.2399 2.97109 11.1515 2.50919 10.9877 2.07192C10.8462 1.69649 10.6247 1.35631 10.3386 1.07498C10.0577 0.788606 9.71759 0.567058 9.34211 0.425831C8.90487 0.26194 8.44295 0.173552 7.97608 0.164442C7.37602 0.137124 7.18419 0.130371 5.65586 0.130371C4.12753 0.130371 3.93555 0.136708 3.33515 0.164442C2.86831 0.173667 2.40641 0.262052 1.96914 0.425831C1.5936 0.567186 1.25338 0.788713 0.972198 1.07498C0.685666 1.35594 0.46411 1.69622 0.323087 2.07192C0.15931 2.5092 0.0709254 2.97109 0.0616981 3.43794C0.0339586 4.03799 0.0275879 4.22984 0.0275879 5.75818C0.0275879 7.28651 0.0339586 7.47833 0.0616868 8.07839C0.0709157 8.54524 0.159304 9.00715 0.323087 9.44443C0.464151 9.82011 0.685701 10.1604 0.972198 10.4414C1.25352 10.7275 1.5937 10.9489 1.96914 11.0905C2.40643 11.2542 2.86831 11.3426 3.33515 11.3519C3.93555 11.3792 4.12706 11.386 5.65539 11.386C7.18373 11.386 7.37558 11.3796 7.97563 11.3519C8.44248 11.3427 8.90437 11.2543 9.34165 11.0905C9.71555 10.9459 10.0551 10.7248 10.3386 10.4414C10.6221 10.1579 10.8432 9.81833 10.9877 9.44443C11.1517 9.0072 11.2401 8.54526 11.2491 8.07839C11.2764 7.4779 11.2828 7.28651 11.2828 5.75818C11.2828 4.22984 11.2764 4.03799 11.2491 3.43794ZM10.2367 8.03251C10.2324 8.38939 10.1669 8.74289 10.0431 9.07764C9.94942 9.32034 9.80597 9.54073 9.62198 9.72464C9.43799 9.90855 9.21753 10.0519 8.97479 10.1455C8.64012 10.2695 8.28657 10.335 7.92966 10.3391C7.33645 10.3663 7.15827 10.3718 5.65536 10.3718C4.15245 10.3718 3.97477 10.3663 3.38173 10.3391C3.02482 10.335 2.67128 10.2695 2.3366 10.1455C2.09215 10.0551 1.87099 9.9113 1.68927 9.72451C1.50219 9.5432 1.35832 9.32212 1.26831 9.07765C1.14423 8.74298 1.07874 8.38943 1.07471 8.03252C1.04741 7.4393 1.04198 7.26113 1.04198 5.75822C1.04198 4.2553 1.04789 4.07762 1.07471 3.48391C1.0792 3.12706 1.14468 2.7736 1.26831 2.43882C1.35864 2.19438 1.50246 1.97321 1.68927 1.79149C1.87067 1.60431 2.09193 1.46042 2.3366 1.37053C2.67127 1.24647 3.02482 1.18098 3.38173 1.17693C3.97494 1.14965 4.15312 1.14421 5.65536 1.14421C7.1576 1.14421 7.33595 1.15011 7.92966 1.17693C8.28653 1.18143 8.63999 1.24691 8.97479 1.37053C9.21761 1.46409 9.43812 1.6075 9.62212 1.7915C9.80612 1.9755 9.94953 2.19602 10.0431 2.43883C10.1672 2.77349 10.2326 3.12702 10.2367 3.48391C10.264 4.07765 10.2694 4.25534 10.2694 5.75822C10.2694 7.2611 10.264 7.4388 10.2367 8.03251Z" fill="black"/>
<path d="M8.65996 2.0791C8.48089 2.07913 8.30892 2.1503 8.18232 2.27693C8.05572 2.40357 7.9846 2.57531 7.98462 2.75438C7.98464 2.93345 8.05578 3.10518 8.18241 3.23179C8.30903 3.35841 8.48077 3.42954 8.65984 3.42954C8.83891 3.42954 9.01064 3.35841 9.13727 3.23179C9.26389 3.10518 9.33504 2.93345 9.33506 2.75438C9.33507 2.57531 9.26396 2.40357 9.13735 2.27693C9.01075 2.1503 8.83903 2.07913 8.65996 2.0791Z" fill="black"/>
</svg>
