<svg width="12" height="12" viewBox="0 0 12 12" fill="none" xmlns="http://www.w3.org/2000/svg">
<path d="M9.85798 9.72165H8.19128V7.10999C8.19128 6.4872 8.17862 5.68574 7.32275 5.68574C6.45376 5.68574 6.32104 6.36339 6.32104 7.06403V9.72165H4.65434V4.35106H6.25539V5.08312H6.27696C6.50066 4.66105 7.04466 4.21553 7.85737 4.21553C9.54612 4.21553 9.85845 5.32698 9.85845 6.77374L9.85798 9.72165ZM2.77191 3.61619C2.64476 3.61625 2.51885 3.59124 2.40139 3.54258C2.28392 3.49393 2.1772 3.42258 2.08733 3.33263C1.99747 3.24268 1.92623 3.13589 1.87769 3.01838C1.82914 2.90086 1.80425 2.77493 1.80444 2.64778C1.80453 2.45634 1.86139 2.26922 1.96782 2.1101C2.07426 1.95097 2.22549 1.82698 2.4024 1.7538C2.5793 1.68063 2.77393 1.66155 2.96168 1.69899C3.14942 1.73643 3.32185 1.8287 3.45715 1.96414C3.59246 2.09957 3.68456 2.27209 3.72182 2.45987C3.75908 2.64765 3.73981 2.84226 3.66647 3.0191C3.59312 3.19593 3.46898 3.34704 3.30975 3.45332C3.15052 3.55961 2.96335 3.61628 2.77191 3.61619ZM3.60761 9.72165H1.93622V4.35106H3.60761V9.72165ZM10.6918 0.130371H1.09958C0.640464 0.130371 0.269043 0.49335 0.269043 0.941212V10.5747C0.269043 11.023 0.640464 11.3855 1.09958 11.3855H10.6904C11.149 11.3855 11.5242 11.023 11.5242 10.5747V0.941212C11.5242 0.49335 11.149 0.130371 10.6904 0.130371H10.6918Z" fill="black"/>
</svg>
