<svg width="180" height="49" viewBox="0 0 180 49" fill="none" xmlns="http://www.w3.org/2000/svg">
<path d="M60.447 18.6268C60.4452 18.3966 60.4895 18.1683 60.5773 17.9553C60.6652 17.7423 60.7949 17.5487 60.9589 17.386C61.1229 17.2232 61.3179 17.0944 61.5325 17.0072C61.7471 16.92 61.9771 16.876 62.209 16.8778H67.884C69.4129 16.7781 70.9191 17.2847 72.072 18.2863C72.4328 18.6376 72.7167 19.0589 72.9059 19.5239C73.0952 19.989 73.1858 20.4878 73.172 20.9892V21.0348C73.1913 21.747 73.0029 22.4495 72.6295 23.0579C72.256 23.6663 71.7135 24.1547 71.067 24.4643C71.9508 24.6958 72.7291 25.2185 73.2742 25.9468C73.8193 26.6751 74.0989 27.5656 74.067 28.4724V28.518C74.067 31.4253 71.687 32.8795 68.067 32.8795H62.21C61.9781 32.8813 61.7481 32.8374 61.5335 32.7501C61.3189 32.6629 61.1239 32.5341 60.9599 32.3714C60.7959 32.2086 60.6662 32.015 60.5783 31.802C60.4905 31.589 60.4462 31.3607 60.448 31.1305V18.6238L60.447 18.6268ZM67.129 23.3059C68.685 23.3059 69.669 22.8096 69.669 21.6254V21.5798C69.669 20.5346 68.845 19.944 67.358 19.944H63.879V23.3059H67.129ZM68.067 29.8114C69.623 29.8114 70.562 29.2664 70.562 28.0853V28.0396C70.562 26.9716 69.762 26.3135 67.953 26.3135H63.879V29.8114H68.067Z" fill="#00CC66"/>
<path d="M76.7599 22.2964C76.7599 21.8386 76.9432 21.3996 77.2693 21.0759C77.5954 20.7522 78.0377 20.5703 78.4989 20.5703C78.9602 20.5703 79.4025 20.7522 79.7286 21.0759C80.0547 21.3996 80.2379 21.8386 80.2379 22.2964V31.1534C80.2379 31.6112 80.0547 32.0502 79.7286 32.3739C79.4025 32.6976 78.9602 32.8795 78.4989 32.8795C78.0377 32.8795 77.5954 32.6976 77.2693 32.3739C76.9432 32.0502 76.7599 31.6112 76.7599 31.1534V22.2964Z" fill="#00CC66"/>
<path d="M83.5109 22.2964C83.5109 21.8386 83.6941 21.3995 84.0203 21.0758C84.3464 20.7521 84.7887 20.5702 85.2499 20.5702C85.7111 20.5702 86.1535 20.7521 86.4796 21.0758C86.8057 21.3995 86.9889 21.8386 86.9889 22.2964V22.8413C87.4889 21.6601 88.3169 20.5693 89.3459 20.5693C89.7598 20.5665 90.1602 20.7154 90.4704 20.9874C90.7805 21.2594 90.9787 21.6355 91.0269 22.0435C91.0751 22.4516 90.9699 22.8629 90.7315 23.1988C90.4931 23.5346 90.1383 23.7714 89.7349 23.8637C87.9729 24.2726 86.9889 25.6126 86.9889 28.0653V31.1533C86.9889 31.6111 86.8057 32.0502 86.4796 32.3739C86.1535 32.6976 85.7111 32.8794 85.2499 32.8794C84.7887 32.8794 84.3464 32.6976 84.0203 32.3739C83.6941 32.0502 83.5109 31.6111 83.5109 31.1533V22.2964Z" fill="#00CC66"/>
<path d="M105.181 31.1533C105.181 31.6111 104.998 32.0501 104.672 32.3738C104.346 32.6976 103.903 32.8794 103.442 32.8794C102.981 32.8794 102.539 32.6976 102.212 32.3738C101.886 32.0501 101.703 31.6111 101.703 31.1533V30.9945C101.277 31.6023 100.704 32.0938 100.036 32.4235C99.3681 32.7531 98.6273 32.9103 97.882 32.8804C95.021 32.8804 92.298 30.8853 92.298 26.8196V26.7739C92.298 22.7043 94.975 20.5732 97.882 20.5732C98.6106 20.5437 99.336 20.6845 99.9998 20.9843C100.663 21.2842 101.247 21.7346 101.703 22.2993V18.6069C101.703 18.3802 101.748 18.1557 101.835 17.9463C101.923 17.7369 102.051 17.5466 102.212 17.3863C102.374 17.226 102.566 17.0989 102.777 17.0121C102.988 16.9254 103.214 16.8807 103.442 16.8807C103.67 16.8807 103.897 16.9254 104.108 17.0121C104.319 17.0989 104.51 17.226 104.672 17.3863C104.833 17.5466 104.961 17.7369 105.049 17.9463C105.136 18.1557 105.181 18.3802 105.181 18.6069V31.1533ZM95.781 26.773V26.8186C95.7278 27.2391 95.7653 27.6661 95.891 28.0711C96.0168 28.4761 96.2279 28.8499 96.5103 29.1677C96.7928 29.4856 97.1401 29.7401 97.5293 29.9144C97.9185 30.0888 98.3406 30.1789 98.7675 30.1789C99.1945 30.1789 99.6166 30.0888 100.006 29.9144C100.395 29.7401 100.742 29.4856 101.025 29.1677C101.307 28.8499 101.518 28.4761 101.644 28.0711C101.77 27.6661 101.807 27.2391 101.754 26.8186V26.773C101.807 26.3525 101.77 25.9255 101.644 25.5205C101.518 25.1155 101.307 24.7417 101.025 24.4238C100.742 24.106 100.395 23.8515 100.006 23.6771C99.6166 23.5028 99.1945 23.4126 98.7675 23.4126C98.3406 23.4126 97.9185 23.5028 97.5293 23.6771C97.1401 23.8515 96.7928 24.106 96.5103 24.4238C96.2279 24.7417 96.0168 25.1155 95.891 25.5205C95.7653 25.9255 95.7278 26.3525 95.781 26.773Z" fill="#00CC66"/>
<path d="M150.323 31.1533C150.323 31.6111 150.14 32.0501 149.814 32.3738C149.487 32.6976 149.045 32.8794 148.584 32.8794C148.123 32.8794 147.68 32.6976 147.354 32.3738C147.028 32.0501 146.845 31.6111 146.845 31.1533V30.9945C146.419 31.6023 145.846 32.0937 145.178 32.4233C144.51 32.753 143.769 32.9102 143.024 32.8804C140.163 32.8804 137.44 30.8853 137.44 26.8196V26.7739C137.44 22.7043 140.117 20.5732 143.024 20.5732C143.752 20.5437 144.478 20.6846 145.142 20.9844C145.805 21.2843 146.389 21.7347 146.845 22.2993V18.6069C146.845 18.1491 147.028 17.71 147.354 17.3863C147.68 17.0626 148.123 16.8807 148.584 16.8807C149.045 16.8807 149.487 17.0626 149.814 17.3863C150.14 17.71 150.323 18.1491 150.323 18.6069V31.1533ZM140.923 26.773V26.8186C140.869 27.2394 140.906 27.6667 141.031 28.0722C141.157 28.4776 141.368 28.8519 141.65 29.1702C141.933 29.4884 142.28 29.7433 142.67 29.918C143.059 30.0926 143.482 30.1829 143.909 30.1829C144.336 30.1829 144.759 30.0926 145.148 29.918C145.537 29.7433 145.885 29.4884 146.167 29.1702C146.45 28.8519 146.661 28.4776 146.786 28.0722C146.912 27.6667 146.949 27.2394 146.895 26.8186V26.773C146.949 26.3522 146.912 25.9249 146.786 25.5194C146.661 25.1139 146.45 24.7396 146.167 24.4214C145.885 24.1031 145.537 23.8482 145.148 23.6736C144.759 23.499 144.336 23.4087 143.909 23.4087C143.482 23.4087 143.059 23.499 142.67 23.6736C142.28 23.8482 141.933 24.1031 141.65 24.4214C141.368 24.7396 141.157 25.1139 141.031 25.5194C140.906 25.9249 140.869 26.3522 140.923 26.773Z" fill="#00CC66"/>
<path d="M165.767 31.1533C165.767 31.6111 165.584 32.0501 165.258 32.3738C164.931 32.6976 164.489 32.8794 164.028 32.8794C163.567 32.8794 163.124 32.6976 162.798 32.3738C162.472 32.0501 162.289 31.6111 162.289 31.1533V30.9945C161.863 31.6023 161.29 32.0938 160.622 32.4235C159.954 32.7531 159.213 32.9103 158.468 32.8804C155.608 32.8804 152.885 30.8853 152.885 26.8196V26.7739C152.885 22.7043 155.562 20.5732 158.468 20.5732C159.197 20.5437 159.922 20.6845 160.586 20.9843C161.249 21.2842 161.833 21.7346 162.289 22.2993V18.6069C162.289 18.1491 162.472 17.71 162.798 17.3863C163.124 17.0626 163.567 16.8807 164.028 16.8807C164.489 16.8807 164.931 17.0626 165.258 17.3863C165.584 17.71 165.767 18.1491 165.767 18.6069V31.1533ZM156.362 26.773V26.8186C156.309 27.2391 156.346 27.6661 156.472 28.0711C156.598 28.4761 156.809 28.8499 157.091 29.1677C157.374 29.4856 157.721 29.7401 158.11 29.9144C158.499 30.0888 158.921 30.1789 159.348 30.1789C159.775 30.1789 160.197 30.0888 160.587 29.9144C160.976 29.7401 161.323 29.4856 161.606 29.1677C161.888 28.8499 162.099 28.4761 162.225 28.0711C162.351 27.6661 162.388 27.2391 162.335 26.8186V26.773C162.388 26.3525 162.351 25.9255 162.225 25.5205C162.099 25.1155 161.888 24.7417 161.606 24.4238C161.323 24.106 160.976 23.8515 160.587 23.6771C160.197 23.5028 159.775 23.4126 159.348 23.4126C158.921 23.4126 158.499 23.5028 158.11 23.6771C157.721 23.8515 157.374 24.106 157.091 24.4238C156.809 24.7417 156.598 25.1155 156.472 25.5205C156.346 25.9255 156.309 26.3525 156.362 26.773Z" fill="#00CC66"/>
<path d="M108.29 18.6039C108.29 18.1461 108.473 17.7071 108.799 17.3834C109.125 17.0597 109.568 16.8778 110.029 16.8778C110.49 16.8778 110.933 17.0597 111.259 17.3834C111.585 17.7071 111.768 18.1461 111.768 18.6039V22.2964C112.224 21.7318 112.808 21.2815 113.471 20.9817C114.135 20.6819 114.86 20.541 115.589 20.5703C118.496 20.5703 121.173 22.7053 121.173 26.771V26.8167C121.173 30.8863 118.45 32.8775 115.589 32.8775C114.844 32.9072 114.103 32.75 113.435 32.4204C112.767 32.0908 112.194 31.5993 111.768 30.9915V31.1504C111.768 31.6082 111.585 32.0472 111.259 32.3709C110.933 32.6946 110.49 32.8765 110.029 32.8765C109.568 32.8765 109.125 32.6946 108.799 32.3709C108.473 32.0472 108.29 31.6082 108.29 31.1504V18.6039ZM114.701 23.4111C114.28 23.4277 113.866 23.5291 113.486 23.7092C113.105 23.8893 112.765 24.1443 112.487 24.4588C112.209 24.7732 111.998 25.1405 111.867 25.5383C111.736 25.9361 111.688 26.3562 111.726 26.773V26.8187C111.672 27.2394 111.709 27.6667 111.835 28.0722C111.96 28.4777 112.171 28.852 112.453 29.1702C112.736 29.4885 113.083 29.7434 113.473 29.918C113.862 30.0926 114.285 30.1829 114.712 30.1829C115.139 30.1829 115.562 30.0926 115.951 29.918C116.341 29.7434 116.688 29.4885 116.971 29.1702C117.253 28.852 117.464 28.4777 117.589 28.0722C117.715 27.6667 117.752 27.2394 117.698 26.8187V26.773C117.735 26.3545 117.686 25.9329 117.554 25.5338C117.422 25.1347 117.209 24.7666 116.928 24.452C116.648 24.1373 116.306 23.8828 115.923 23.7038C115.54 23.5248 115.124 23.4252 114.701 23.4111Z" fill="#00CC66"/>
<path d="M134.879 31.1534C134.879 31.6112 134.696 32.0502 134.37 32.3739C134.044 32.6976 133.601 32.8795 133.14 32.8795C132.679 32.8795 132.236 32.6976 131.91 32.3739C131.584 32.0502 131.401 31.6112 131.401 31.1534V31.0164C131.004 31.5981 130.469 32.0728 129.841 32.398C129.214 32.7232 128.515 32.8887 127.808 32.8795C125.177 32.8795 123.644 31.3837 123.644 28.5905V22.2964C123.644 21.8386 123.827 21.3996 124.153 21.0759C124.479 20.7522 124.922 20.5703 125.383 20.5703C125.844 20.5703 126.287 20.7522 126.613 21.0759C126.939 21.3996 127.122 21.8386 127.122 22.2964V27.4976C127.122 29.1334 127.9 29.9732 129.222 29.9732C130.544 29.9732 131.395 29.1325 131.395 27.4976V22.2964C131.395 21.8386 131.578 21.3996 131.904 21.0759C132.23 20.7522 132.673 20.5703 133.134 20.5703C133.595 20.5703 134.038 20.7522 134.364 21.0759C134.69 21.3996 134.873 21.8386 134.873 22.2964V31.1534H134.879Z" fill="#00CC66"/>
<path d="M169.52 36.2652C169.205 36.1778 168.927 35.9908 168.728 35.7325C168.53 35.4742 168.422 35.1588 168.42 34.8339C168.416 34.6516 168.448 34.4703 168.515 34.3005C168.582 34.1307 168.682 33.9758 168.81 33.8447C168.938 33.7137 169.09 33.6092 169.259 33.5372C169.428 33.4652 169.609 33.4272 169.793 33.4254C169.988 33.4217 170.181 33.4527 170.365 33.5167C170.6 33.6019 170.847 33.6478 171.097 33.6527C171.356 33.6919 171.62 33.6409 171.846 33.5085C172.071 33.376 172.243 33.1703 172.333 32.9261L172.448 32.6532L168.26 23.025C168.156 22.772 168.094 22.5037 168.077 22.2309C168.074 22.0084 168.116 21.7875 168.202 21.5818C168.287 21.3762 168.414 21.19 168.575 21.0347C168.736 20.8795 168.927 20.7584 169.136 20.6788C169.345 20.5993 169.569 20.5631 169.793 20.5723C170.178 20.565 170.554 20.6891 170.859 20.924C171.163 21.1589 171.376 21.4902 171.464 21.8626L174.118 28.9488L176.681 21.8845C176.776 21.5137 176.991 21.1841 177.293 20.9461C177.595 20.708 177.967 20.5746 178.352 20.5663C178.565 20.5624 178.778 20.6004 178.976 20.6783C179.175 20.7561 179.356 20.8722 179.509 21.0198C179.662 21.1675 179.784 21.3438 179.868 21.5385C179.952 21.7332 179.997 21.9426 179.999 22.1545C179.99 22.4339 179.936 22.71 179.839 22.9724L175.561 33.1753C174.531 35.6508 173.501 36.5829 171.419 36.5829C170.771 36.5944 170.128 36.4867 169.52 36.2652Z" fill="#00CC66"/>
<path d="M78.501 18.878C78.8996 18.878 79.2891 18.7607 79.6205 18.5409C79.9519 18.3211 80.2101 18.0088 80.3626 17.6433C80.5152 17.2778 80.5551 16.8757 80.4773 16.4877C80.3996 16.0997 80.2076 15.7433 79.9258 15.4636C79.644 15.1839 79.285 14.9934 78.8941 14.9162C78.5033 14.8391 78.0981 14.8787 77.7299 15.0301C77.3617 15.1814 77.047 15.4378 76.8256 15.7667C76.6042 16.0956 76.486 16.4823 76.486 16.8779C76.486 17.4083 76.6983 17.9171 77.0762 18.2922C77.4541 18.6673 77.9666 18.878 78.501 18.878Z" fill="#00CC66"/>
<path d="M24.1799 0.87915C19.3978 0.87915 14.723 2.28673 10.7468 4.92388C6.77058 7.56103 3.67149 11.3093 1.84144 15.6947C0.0113919 20.0802 -0.467433 24.9058 0.465519 29.5613C1.39847 34.2169 3.7013 38.4932 7.08279 41.8497C10.4643 45.2062 14.7726 47.4919 19.4628 48.418C24.1531 49.344 29.0147 48.8688 33.4328 47.0522C37.851 45.2357 41.6272 42.1596 44.284 38.2128C46.9409 34.2661 48.3589 29.6259 48.3589 24.8791C48.3589 18.514 45.8115 12.4095 41.2771 7.90859C36.7426 3.40771 30.5926 0.87915 24.1799 0.87915ZM26.7889 38.2127H21.4889C19.1733 38.2127 16.9526 37.2996 15.3152 35.6744C13.6778 34.0491 12.7579 31.8448 12.7579 29.5463V28.9279C12.758 28.5777 12.6885 28.2309 12.5535 27.9073C12.4184 27.5837 12.2205 27.2896 11.9709 27.042L10.5839 25.6653C10.4799 25.5621 10.3975 25.4397 10.3412 25.3049C10.2849 25.1701 10.2559 25.0256 10.2559 24.8796C10.2559 24.7337 10.2849 24.5892 10.3412 24.4544C10.3975 24.3196 10.4799 24.1972 10.5839 24.094L11.9749 22.7163C12.2245 22.4686 12.4224 22.1746 12.5575 21.851C12.6925 21.5274 12.762 21.1806 12.7619 20.8303V20.212C12.7619 17.9135 13.6818 15.7092 15.3192 14.0839C16.9566 12.4587 19.1773 11.5456 21.4929 11.5456H25.4359C26.6279 11.5342 27.8077 11.785 28.8903 12.2802C29.973 12.7753 30.9317 13.5024 31.6975 14.4092C32.4633 15.3159 33.0172 16.3798 33.3193 17.5244C33.6215 18.669 33.6644 19.8659 33.4449 21.0289C33.1998 22.3595 33.476 23.7329 34.2169 24.8682C35.1253 26.2685 35.606 27.8998 35.6009 29.5652C35.5824 31.8702 34.6449 34.0741 32.9935 35.6947C31.3421 37.3153 29.1112 38.2206 26.7889 38.2127Z" fill="#00CC66"/>
<path d="M20.8218 21.8786C20.8219 22.4909 20.5794 23.0787 20.1466 23.5151C19.7139 23.9516 19.1256 24.2016 18.5088 24.2112H18.4708C18.4058 24.2112 18.3418 24.2112 18.2788 24.2033C17.7235 24.1581 17.2025 23.9186 16.8085 23.5276C16.4146 23.1365 16.1733 22.6193 16.1278 22.0682C16.1228 22.0056 16.1198 21.9421 16.1198 21.8776C16.1239 21.2683 16.3679 20.6847 16.7998 20.2516C17.2316 19.8185 17.817 19.5703 18.4307 19.5599C19.0445 19.5495 19.6381 19.7779 20.0845 20.1961C20.5309 20.6144 20.7948 21.1894 20.8198 21.7982C20.8208 21.823 20.8218 21.8518 20.8218 21.8786Z" fill="#00CC66"/>
</svg>
