<svg width="28" height="28" viewBox="0 0 28 28" fill="none" xmlns="http://www.w3.org/2000/svg">
<path d="M5.7373 18.3589H21.8014V22.9487C21.8014 23.5824 21.2877 24.0961 20.6539 24.0961H6.88474C6.25103 24.0961 5.7373 23.5824 5.7373 22.9487V18.3589Z" fill="#F78B27"/>
<path d="M3.45239 5.89429C3.36176 5.39996 3.90542 5.03628 4.32772 5.30873L9.80647 8.84335C10.0874 9.0246 10.4632 8.92819 10.6222 8.63407L13.265 3.74487C13.4819 3.34367 14.0575 3.34367 14.2744 3.74487L16.9172 8.63407C17.0762 8.92819 17.452 9.0246 17.7329 8.84335L23.2117 5.30873C23.634 5.03628 24.1777 5.39996 24.087 5.89429L21.8017 18.3589H5.73767L3.45239 5.89429Z" fill="black"/>
</svg>
