<svg width="32" height="36" viewBox="0 0 32 36" fill="none" xmlns="http://www.w3.org/2000/svg">
<path d="M16.0006 12.1193C16.8356 12.1193 17.5388 11.6814 17.6303 11.1183L18.4581 1.69663C18.4581 0.763671 17.3649 0 16.0006 0C14.6289 0 13.543 0.763671 13.543 1.69664L14.378 11.1183C14.466 11.6814 15.1654 12.1193 16.0006 12.1193Z" fill="#FFC220"/>
<path d="M10.9223 15.0676C11.3361 14.3316 11.3123 13.5145 10.8656 13.1502L3.13756 7.71983C2.3337 7.24876 1.13048 7.81001 0.44197 8.99876C-0.244761 10.1857 -0.105601 11.5179 0.681832 11.9798L9.23749 15.9656C9.78506 16.1717 10.5011 15.789 10.9223 15.0603" fill="#FFC220"/>
<path d="M21.0785 15.0599C21.5161 15.7886 22.2321 16.1713 22.765 15.9763L31.3207 11.9794C32.1155 11.5084 32.2345 10.189 31.5625 9.00206C30.8757 7.81331 29.6652 7.25574 28.8632 7.71763L21.1334 13.1424C20.7049 13.5123 20.6738 14.333 21.0876 15.0673" fill="#FFC220"/>
<path d="M16.0006 23.888C16.8356 23.888 17.5388 24.326 17.6303 24.8891L18.4581 34.3107C18.4581 35.2437 17.3649 36 16.0006 36C14.6289 36 13.543 35.2437 13.543 34.3107L14.378 24.8891C14.466 24.326 15.1654 23.888 16.0006 23.888Z" fill="#FFC220"/>
<path d="M21.0785 20.9484C21.5161 20.2179 22.2321 19.8278 22.765 20.0394L31.3207 24.0289C32.1155 24.4907 32.2345 25.8212 31.5625 27.0099C30.8757 28.1895 29.6652 28.7507 28.8632 28.2889L21.1334 22.8567C20.7049 22.4905 20.6738 21.6735 21.0876 20.9484" fill="#FFC220"/>
<path d="M10.9223 20.9406C11.3361 21.6748 11.3123 22.49 10.8656 22.858L3.13756 28.281C2.3337 28.7521 1.13048 28.189 0.44197 27.0095C-0.244761 25.8226 -0.105601 24.4903 0.681832 24.0284L9.23749 20.0389C9.78506 19.8291 10.5011 20.2156 10.9223 20.9406Z" fill="#FFC220"/>
</svg>
