<svg width="42" height="42" viewBox="0 0 42 42" fill="none" xmlns="http://www.w3.org/2000/svg">
<path d="M20.9996 27.9397C24.9048 27.9397 28.0701 24.7726 28.0701 20.8688C28.0701 16.9649 24.9048 13.7978 20.9996 13.7978C17.0969 13.7978 13.9307 16.9642 13.9307 20.8688C13.9307 24.7733 17.0969 27.9397 20.9996 27.9397ZM20.9996 34.6161C28.5196 34.6161 34.6148 28.5197 34.6148 20.9992C34.6148 13.4787 28.5196 7.38475 20.9996 7.38475C13.4796 7.38475 7.38517 13.4795 7.38517 20.9992C7.38517 28.5189 13.4812 34.6161 20.9996 34.6161ZM0.5 20.9992C0.5 9.67749 9.67776 0.5 20.9996 0.5C32.3215 0.5 41.5 9.67749 41.5 20.9992C41.5 32.3209 32.3206 41.5 20.9996 41.5C9.6786 41.5 0.5 32.3226 0.5 20.9992Z" fill="#ED1C2E"/>
</svg>
