<svg width="12" height="14" viewBox="0 0 12 14" fill="none" xmlns="http://www.w3.org/2000/svg">
<path d="M6.66293 0.291558C7.37006 0.280762 8.07179 0.28616 8.77352 0.280762C8.8167 1.10665 9.11359 1.94872 9.71816 2.5317C10.3227 3.13087 11.1756 3.40616 12.0069 3.49793V5.67329C11.2296 5.6463 10.4469 5.48437 9.73975 5.1497C9.43207 5.00935 9.14598 4.83122 8.86529 4.64769C8.85989 6.22388 8.87068 7.80008 8.85449 9.37088C8.81131 10.1266 8.563 10.8769 8.12577 11.4977C7.41864 12.5341 6.19331 13.2088 4.93559 13.2304C4.16369 13.2736 3.39178 13.0631 2.73324 12.6744C1.64285 12.0321 0.876348 10.8553 0.762992 9.59219C0.752196 9.3223 0.746798 9.0524 0.757594 8.7879C0.854756 7.76229 1.36216 6.77987 2.15026 6.11053C3.04632 5.33322 4.29864 4.96077 5.46999 5.18208C5.48078 5.98098 5.4484 6.77987 5.4484 7.57876C4.914 7.40603 4.28784 7.45461 3.81822 7.77849C3.47815 7.9998 3.21905 8.33987 3.0841 8.72313C2.97075 8.99842 3.00313 9.3007 3.00853 9.59219C3.13808 10.4775 3.99095 11.2224 4.89781 11.1414C5.50237 11.136 6.07995 10.7851 6.39303 10.2723C6.49559 10.0942 6.60895 9.91067 6.61435 9.70015C6.66833 8.73392 6.64674 7.77309 6.65213 6.80686C6.65753 4.63149 6.64674 2.46153 6.66293 0.291558Z" fill="black"/>
</svg>
